<mxfile host="app.diagrams.net" modified="2022-06-01T07:41:54.786Z" agent="5.0 (Windows NT 10.0; Win64; x64) AppleWebKit/537.36 (KHTML, like Gecko) Chrome/101.0.4951.67 Safari/537.36" etag="WiCxyA1Gd39shbrmg3CU" version="18.2.0" type="github" pages="2">
  <diagram id="C5RBs43oDa-KdzZeNtuy" name="Service 1">
    <mxGraphModel dx="993" dy="539" grid="1" gridSize="10" guides="1" tooltips="1" connect="1" arrows="1" fold="1" page="1" pageScale="1" pageWidth="827" pageHeight="1169" math="0" shadow="0">
      <root>
        <mxCell id="WIyWlLk6GJQsqaUBKTNV-0" />
        <mxCell id="WIyWlLk6GJQsqaUBKTNV-1" parent="WIyWlLk6GJQsqaUBKTNV-0" />
        <mxCell id="ealcNIhBsG5U8FRnj8jf-2" value="บริการการออกหนังสือรับรองการให้บริการจัดเก็บข้อมูลฝอยและหรือสิ่งปปฏิกูลเพื่อนำไปใช้ประกอบเรื่องราวต่างๆ " style="swimlane;childLayout=stackLayout;resizeParent=1;resizeParentMax=0;startSize=20;flipV=0;flipH=0;direction=east;labelBackgroundColor=#FFFFFF;" vertex="1" parent="WIyWlLk6GJQsqaUBKTNV-1">
          <mxGeometry x="90" y="42" width="660" height="1110" as="geometry" />
        </mxCell>
        <mxCell id="ealcNIhBsG5U8FRnj8jf-13" style="edgeStyle=orthogonalEdgeStyle;rounded=0;orthogonalLoop=1;jettySize=auto;html=1;fontFamily=Helvetica;fontSize=12;fontColor=default;endArrow=block;endFill=1;startSize=20;entryX=0;entryY=0.5;entryDx=0;entryDy=0;" edge="1" parent="ealcNIhBsG5U8FRnj8jf-2" source="ealcNIhBsG5U8FRnj8jf-10" target="ealcNIhBsG5U8FRnj8jf-24">
          <mxGeometry relative="1" as="geometry">
            <mxPoint x="230" y="205" as="targetPoint" />
          </mxGeometry>
        </mxCell>
        <mxCell id="ealcNIhBsG5U8FRnj8jf-51" style="edgeStyle=orthogonalEdgeStyle;rounded=0;orthogonalLoop=1;jettySize=auto;html=1;entryX=1;entryY=0.5;entryDx=0;entryDy=0;labelBackgroundColor=#0000CC;labelBorderColor=none;fontFamily=Helvetica;fontSize=12;fontColor=#050405;endArrow=block;endFill=1;startSize=20;" edge="1" parent="ealcNIhBsG5U8FRnj8jf-2" source="ealcNIhBsG5U8FRnj8jf-49" target="ealcNIhBsG5U8FRnj8jf-21">
          <mxGeometry relative="1" as="geometry">
            <Array as="points">
              <mxPoint x="520" y="608" />
            </Array>
          </mxGeometry>
        </mxCell>
        <mxCell id="ealcNIhBsG5U8FRnj8jf-3" value="ผู้ประสงค์ให้ออกหนังสือรับรอง" style="swimlane;startSize=30;" vertex="1" parent="ealcNIhBsG5U8FRnj8jf-2">
          <mxGeometry y="20" width="340" height="1090" as="geometry" />
        </mxCell>
        <mxCell id="WIyWlLk6GJQsqaUBKTNV-3" value="Start" style="rounded=1;whiteSpace=wrap;html=1;fontSize=12;glass=0;strokeWidth=1;shadow=0;" parent="ealcNIhBsG5U8FRnj8jf-3" vertex="1">
          <mxGeometry x="100" y="50" width="120" height="40" as="geometry" />
        </mxCell>
        <mxCell id="WIyWlLk6GJQsqaUBKTNV-2" value="" style="rounded=0;html=1;jettySize=auto;orthogonalLoop=1;fontSize=11;endArrow=block;endFill=1;endSize=8;strokeWidth=1;shadow=0;labelBackgroundColor=none;edgeStyle=orthogonalEdgeStyle;" parent="ealcNIhBsG5U8FRnj8jf-3" source="WIyWlLk6GJQsqaUBKTNV-3" target="ealcNIhBsG5U8FRnj8jf-10" edge="1">
          <mxGeometry relative="1" as="geometry">
            <mxPoint x="80" y="140" as="targetPoint" />
          </mxGeometry>
        </mxCell>
        <mxCell id="ealcNIhBsG5U8FRnj8jf-10" value="&lt;span style=&quot;&quot;&gt;ยื่นหนังสือแจ้งความ&lt;br&gt;ประสงค์พร้อมหลักฐาน&lt;/span&gt;" style="shape=parallelogram;perimeter=parallelogramPerimeter;whiteSpace=wrap;html=1;fixedSize=1;fontFamily=Helvetica;fontSize=12;fontColor=default;startSize=20;strokeColor=default;fillColor=default;size=10;" vertex="1" parent="ealcNIhBsG5U8FRnj8jf-3">
          <mxGeometry x="90" y="150" width="140" height="70" as="geometry" />
        </mxCell>
        <mxCell id="lDSEFxvxd_CRZ7ViD6BX-7" style="edgeStyle=orthogonalEdgeStyle;rounded=0;orthogonalLoop=1;jettySize=auto;html=1;labelBackgroundColor=#0000CC;labelBorderColor=none;fontFamily=Helvetica;fontSize=12;fontColor=#050405;endArrow=block;endFill=1;startSize=20;" edge="1" parent="ealcNIhBsG5U8FRnj8jf-3" source="ealcNIhBsG5U8FRnj8jf-21" target="lDSEFxvxd_CRZ7ViD6BX-0">
          <mxGeometry relative="1" as="geometry" />
        </mxCell>
        <mxCell id="ealcNIhBsG5U8FRnj8jf-21" value="แก้ไข / ยื่นเอกสาร&lt;br&gt;เพิ่มเติม" style="shape=parallelogram;perimeter=parallelogramPerimeter;whiteSpace=wrap;html=1;fixedSize=1;labelBackgroundColor=none;fontFamily=Helvetica;fontSize=12;fontColor=default;startSize=20;strokeColor=default;fillColor=default;size=10;" vertex="1" parent="ealcNIhBsG5U8FRnj8jf-3">
          <mxGeometry x="80" y="558" width="130" height="60" as="geometry" />
        </mxCell>
        <mxCell id="lDSEFxvxd_CRZ7ViD6BX-0" value="เวลาในการดำเนิน&lt;br&gt;การแก้ไข / ยื่นเอกสาร" style="rhombus;whiteSpace=wrap;html=1;labelBackgroundColor=#FFFFFF;labelBorderColor=none;fontFamily=Helvetica;fontSize=12;fontColor=#050405;startSize=20;strokeColor=default;fillColor=default;" vertex="1" parent="ealcNIhBsG5U8FRnj8jf-3">
          <mxGeometry x="75" y="668" width="140" height="132" as="geometry" />
        </mxCell>
        <mxCell id="lDSEFxvxd_CRZ7ViD6BX-3" value="[ดำเนินการเกินระยะเวลาที่กำหนด]" style="text;html=1;align=center;verticalAlign=middle;resizable=0;points=[];autosize=1;fontSize=12;fontFamily=Helvetica;labelBackgroundColor=#FFFFFF;" vertex="1" parent="ealcNIhBsG5U8FRnj8jf-3">
          <mxGeometry x="55" y="838" width="180" height="20" as="geometry" />
        </mxCell>
        <mxCell id="lDSEFxvxd_CRZ7ViD6BX-10" value="[ดำเนินการภายในระยะเวลาที่กำหนด]" style="text;html=1;align=center;verticalAlign=middle;resizable=0;points=[];autosize=1;fontSize=12;fontFamily=Helvetica;labelBackgroundColor=#FFFFFF;" vertex="1" parent="ealcNIhBsG5U8FRnj8jf-3">
          <mxGeometry y="458" width="200" height="20" as="geometry" />
        </mxCell>
        <mxCell id="ealcNIhBsG5U8FRnj8jf-4" value="เจ้าหน้าที่" style="swimlane;startSize=30;" vertex="1" parent="ealcNIhBsG5U8FRnj8jf-2">
          <mxGeometry x="340" y="20" width="320" height="1090" as="geometry" />
        </mxCell>
        <mxCell id="ealcNIhBsG5U8FRnj8jf-15" style="edgeStyle=orthogonalEdgeStyle;rounded=0;orthogonalLoop=1;jettySize=auto;html=1;entryX=0.5;entryY=0;entryDx=0;entryDy=0;fontFamily=Helvetica;fontSize=12;fontColor=default;endArrow=block;endFill=1;startSize=20;" edge="1" parent="ealcNIhBsG5U8FRnj8jf-4" source="ealcNIhBsG5U8FRnj8jf-12" target="ealcNIhBsG5U8FRnj8jf-18">
          <mxGeometry relative="1" as="geometry">
            <mxPoint x="80" y="380" as="targetPoint" />
          </mxGeometry>
        </mxCell>
        <mxCell id="ealcNIhBsG5U8FRnj8jf-12" value="ตรวจสอบเอกสาร" style="rhombus;whiteSpace=wrap;html=1;fontFamily=Helvetica;fontSize=12;fontColor=default;startSize=20;strokeColor=default;fillColor=default;" vertex="1" parent="ealcNIhBsG5U8FRnj8jf-4">
          <mxGeometry x="140" y="270" width="80" height="80" as="geometry" />
        </mxCell>
        <mxCell id="ealcNIhBsG5U8FRnj8jf-17" value="[เอกสารไม่ครบถ้วน / มีข้อบกพร่อง]" style="text;html=1;align=center;verticalAlign=middle;resizable=0;points=[];autosize=1;fontSize=12;fontFamily=Helvetica;labelBackgroundColor=default;" vertex="1" parent="ealcNIhBsG5U8FRnj8jf-4">
          <mxGeometry x="85" y="360" width="190" height="20" as="geometry" />
        </mxCell>
        <mxCell id="ealcNIhBsG5U8FRnj8jf-50" style="edgeStyle=orthogonalEdgeStyle;rounded=0;orthogonalLoop=1;jettySize=auto;html=1;labelBackgroundColor=#0000CC;labelBorderColor=none;fontFamily=Helvetica;fontSize=12;fontColor=#050405;endArrow=block;endFill=1;startSize=20;" edge="1" parent="ealcNIhBsG5U8FRnj8jf-4" source="ealcNIhBsG5U8FRnj8jf-18" target="ealcNIhBsG5U8FRnj8jf-49">
          <mxGeometry relative="1" as="geometry" />
        </mxCell>
        <mxCell id="ealcNIhBsG5U8FRnj8jf-18" value="&lt;span style=&quot;&quot;&gt;บันทึกความบกพร่องเอกสาร / เอกสารหลักฐานที่ยื่นเพิ่มเติม&lt;/span&gt;" style="shape=parallelogram;perimeter=parallelogramPerimeter;whiteSpace=wrap;html=1;fixedSize=1;labelBackgroundColor=none;fontFamily=Helvetica;fontSize=12;fontColor=default;startSize=20;strokeColor=default;fillColor=default;size=10;" vertex="1" parent="ealcNIhBsG5U8FRnj8jf-4">
          <mxGeometry x="102.5" y="410" width="155" height="60" as="geometry" />
        </mxCell>
        <mxCell id="ealcNIhBsG5U8FRnj8jf-31" style="edgeStyle=orthogonalEdgeStyle;rounded=0;orthogonalLoop=1;jettySize=auto;html=1;exitX=0.5;exitY=1;exitDx=0;exitDy=0;entryX=0.5;entryY=0;entryDx=0;entryDy=0;fontFamily=Helvetica;fontSize=12;fontColor=default;endArrow=block;endFill=1;startSize=20;" edge="1" parent="ealcNIhBsG5U8FRnj8jf-4" source="ealcNIhBsG5U8FRnj8jf-24" target="ealcNIhBsG5U8FRnj8jf-12">
          <mxGeometry relative="1" as="geometry">
            <Array as="points">
              <mxPoint x="60" y="190" />
              <mxPoint x="180" y="190" />
            </Array>
          </mxGeometry>
        </mxCell>
        <mxCell id="ealcNIhBsG5U8FRnj8jf-24" value="" style="ellipse;whiteSpace=wrap;html=1;aspect=fixed;labelBackgroundColor=none;fontFamily=Helvetica;fontSize=12;fontColor=default;startSize=20;strokeColor=default;fillColor=default;" vertex="1" parent="ealcNIhBsG5U8FRnj8jf-4">
          <mxGeometry x="50" y="175" width="20" height="20" as="geometry" />
        </mxCell>
        <mxCell id="ealcNIhBsG5U8FRnj8jf-39" style="edgeStyle=orthogonalEdgeStyle;rounded=0;orthogonalLoop=1;jettySize=auto;html=1;entryX=0.5;entryY=0;entryDx=0;entryDy=0;labelBackgroundColor=#0000CC;labelBorderColor=none;fontFamily=Helvetica;fontSize=12;fontColor=#050405;endArrow=block;endFill=1;startSize=20;" edge="1" parent="ealcNIhBsG5U8FRnj8jf-4" source="ealcNIhBsG5U8FRnj8jf-32" target="ealcNIhBsG5U8FRnj8jf-38">
          <mxGeometry relative="1" as="geometry" />
        </mxCell>
        <mxCell id="ealcNIhBsG5U8FRnj8jf-32" value="พิจารณาคำขอ" style="rounded=0;whiteSpace=wrap;html=1;labelBackgroundColor=none;fontFamily=Helvetica;fontSize=12;fontColor=default;startSize=20;strokeColor=default;fillColor=default;" vertex="1" parent="ealcNIhBsG5U8FRnj8jf-4">
          <mxGeometry x="114" y="680" width="120" height="60" as="geometry" />
        </mxCell>
        <mxCell id="ealcNIhBsG5U8FRnj8jf-37" value="[เอกสารครบถ้วน]" style="text;html=1;align=center;verticalAlign=middle;resizable=0;points=[];autosize=1;fontSize=12;fontFamily=Helvetica;labelBackgroundColor=default;" vertex="1" parent="ealcNIhBsG5U8FRnj8jf-4">
          <mxGeometry x="220" y="290" width="100" height="20" as="geometry" />
        </mxCell>
        <mxCell id="ealcNIhBsG5U8FRnj8jf-33" style="edgeStyle=orthogonalEdgeStyle;rounded=0;orthogonalLoop=1;jettySize=auto;html=1;fontFamily=Helvetica;fontSize=12;fontColor=default;endArrow=block;endFill=1;startSize=20;labelBorderColor=none;verticalAlign=middle;labelBackgroundColor=#0000CC;entryX=1;entryY=0.5;entryDx=0;entryDy=0;" edge="1" parent="ealcNIhBsG5U8FRnj8jf-4" source="ealcNIhBsG5U8FRnj8jf-12" target="ealcNIhBsG5U8FRnj8jf-32">
          <mxGeometry relative="1" as="geometry">
            <mxPoint x="180" y="590" as="targetPoint" />
            <Array as="points">
              <mxPoint x="310" y="310" />
              <mxPoint x="310" y="710" />
            </Array>
          </mxGeometry>
        </mxCell>
        <mxCell id="ealcNIhBsG5U8FRnj8jf-41" style="edgeStyle=orthogonalEdgeStyle;rounded=0;orthogonalLoop=1;jettySize=auto;html=1;labelBackgroundColor=#0000CC;labelBorderColor=none;fontFamily=Helvetica;fontSize=12;fontColor=#050405;endArrow=block;endFill=1;startSize=20;" edge="1" parent="ealcNIhBsG5U8FRnj8jf-4" source="ealcNIhBsG5U8FRnj8jf-38" target="ealcNIhBsG5U8FRnj8jf-40">
          <mxGeometry relative="1" as="geometry" />
        </mxCell>
        <mxCell id="ealcNIhBsG5U8FRnj8jf-38" value="จัดทำหนังสือแจ้งผลการพิจารณา" style="shape=document;whiteSpace=wrap;html=1;boundedLbl=1;labelBackgroundColor=#FFFFFF;labelBorderColor=none;fontFamily=Helvetica;fontSize=12;fontColor=#050405;startSize=20;strokeColor=default;fillColor=default;" vertex="1" parent="ealcNIhBsG5U8FRnj8jf-4">
          <mxGeometry x="114" y="770" width="120" height="80" as="geometry" />
        </mxCell>
        <mxCell id="ealcNIhBsG5U8FRnj8jf-43" style="edgeStyle=orthogonalEdgeStyle;rounded=0;orthogonalLoop=1;jettySize=auto;html=1;labelBackgroundColor=#0000CC;labelBorderColor=none;fontFamily=Helvetica;fontSize=12;fontColor=#050405;endArrow=block;endFill=1;startSize=20;" edge="1" parent="ealcNIhBsG5U8FRnj8jf-4" source="ealcNIhBsG5U8FRnj8jf-40" target="ealcNIhBsG5U8FRnj8jf-42">
          <mxGeometry relative="1" as="geometry" />
        </mxCell>
        <mxCell id="ealcNIhBsG5U8FRnj8jf-40" value="แจ้งผลพิจารณาแก่&lt;span style=&quot;color: rgb(0, 0, 0); background-color: rgb(248, 249, 250);&quot;&gt;ผู้ประสงค์ให้ออก&lt;/span&gt;&lt;br style=&quot;padding: 0px; margin: 0px; color: rgb(0, 0, 0); background-color: rgb(248, 249, 250);&quot;&gt;&lt;span style=&quot;color: rgb(0, 0, 0); background-color: rgb(248, 249, 250);&quot;&gt;หนังสือรับรอง&lt;/span&gt;" style="rounded=0;whiteSpace=wrap;html=1;labelBackgroundColor=#FFFFFF;labelBorderColor=none;fontFamily=Helvetica;fontSize=12;fontColor=#050405;startSize=20;strokeColor=default;fillColor=default;" vertex="1" parent="ealcNIhBsG5U8FRnj8jf-4">
          <mxGeometry x="114" y="880" width="120" height="70" as="geometry" />
        </mxCell>
        <mxCell id="ealcNIhBsG5U8FRnj8jf-42" value="End" style="rounded=1;whiteSpace=wrap;html=1;labelBackgroundColor=#FFFFFF;labelBorderColor=none;fontFamily=Helvetica;fontSize=12;fontColor=#050405;startSize=20;strokeColor=default;fillColor=default;" vertex="1" parent="ealcNIhBsG5U8FRnj8jf-4">
          <mxGeometry x="114" y="1000" width="120" height="60" as="geometry" />
        </mxCell>
        <mxCell id="ealcNIhBsG5U8FRnj8jf-49" value="มอบสำเนาบันทึกความบกพร่องแก่ผู้ยื่นคำขอ" style="rounded=0;whiteSpace=wrap;html=1;labelBackgroundColor=#FFFFFF;labelBorderColor=none;fontFamily=Helvetica;fontSize=12;fontColor=#050405;startSize=20;strokeColor=default;fillColor=default;" vertex="1" parent="ealcNIhBsG5U8FRnj8jf-4">
          <mxGeometry x="120" y="510" width="120" height="60" as="geometry" />
        </mxCell>
        <mxCell id="lDSEFxvxd_CRZ7ViD6BX-2" style="edgeStyle=orthogonalEdgeStyle;rounded=0;orthogonalLoop=1;jettySize=auto;html=1;entryX=0;entryY=0.75;entryDx=0;entryDy=0;labelBackgroundColor=#0000CC;labelBorderColor=none;fontFamily=Helvetica;fontSize=12;fontColor=#050405;endArrow=block;endFill=1;startSize=20;" edge="1" parent="ealcNIhBsG5U8FRnj8jf-2" source="lDSEFxvxd_CRZ7ViD6BX-0" target="ealcNIhBsG5U8FRnj8jf-42">
          <mxGeometry relative="1" as="geometry">
            <Array as="points">
              <mxPoint x="145" y="1065" />
            </Array>
          </mxGeometry>
        </mxCell>
        <mxCell id="lDSEFxvxd_CRZ7ViD6BX-8" style="edgeStyle=orthogonalEdgeStyle;rounded=0;orthogonalLoop=1;jettySize=auto;html=1;entryX=0.5;entryY=1;entryDx=0;entryDy=0;labelBackgroundColor=#0000CC;labelBorderColor=none;fontFamily=Helvetica;fontSize=12;fontColor=#050405;endArrow=block;endFill=1;startSize=20;" edge="1" parent="ealcNIhBsG5U8FRnj8jf-2" source="lDSEFxvxd_CRZ7ViD6BX-0" target="ealcNIhBsG5U8FRnj8jf-24">
          <mxGeometry relative="1" as="geometry">
            <Array as="points">
              <mxPoint x="50" y="754" />
              <mxPoint x="50" y="330" />
              <mxPoint x="400" y="330" />
            </Array>
          </mxGeometry>
        </mxCell>
      </root>
    </mxGraphModel>
  </diagram>
  <diagram id="aLvKHB9o4FTLrIV4ae-5" name="Service2">
    <mxGraphModel dx="1045" dy="567" grid="1" gridSize="10" guides="1" tooltips="1" connect="1" arrows="1" fold="1" page="1" pageScale="1" pageWidth="827" pageHeight="1169" math="0" shadow="0">
      <root>
        <mxCell id="0" />
        <mxCell id="1" parent="0" />
        <mxCell id="EJrE-l1MfOlmUbTXFjeP-2" value="การขออนุญาตขุดล้อมย้ายต้นไม้ที่สาธารณะเพื่อเปิดทางเข้าออกอาคารและสถานที่" style="swimlane;childLayout=stackLayout;resizeParent=1;resizeParentMax=0;startSize=20;labelBackgroundColor=#FFFFFF;labelBorderColor=none;fontFamily=Helvetica;fontSize=12;fontColor=#050405;strokeColor=default;fillColor=default;" vertex="1" parent="1">
          <mxGeometry x="120" y="60" width="1060" height="1370" as="geometry" />
        </mxCell>
        <mxCell id="lzowUycqL3j4fNTdu4ry-2" style="edgeStyle=orthogonalEdgeStyle;rounded=0;orthogonalLoop=1;jettySize=auto;html=1;entryX=0;entryY=0.5;entryDx=0;entryDy=0;labelBackgroundColor=#0000CC;labelBorderColor=none;fontFamily=Helvetica;fontSize=12;fontColor=#050405;endArrow=block;endFill=1;startSize=20;" edge="1" parent="EJrE-l1MfOlmUbTXFjeP-2" source="5ySdBbaKKtM053T3cAdn-1" target="lzowUycqL3j4fNTdu4ry-1">
          <mxGeometry relative="1" as="geometry" />
        </mxCell>
        <mxCell id="YDhDUQ8Wdp23jA2pJZWv-3" style="edgeStyle=orthogonalEdgeStyle;rounded=0;orthogonalLoop=1;jettySize=auto;html=1;entryX=1;entryY=0.5;entryDx=0;entryDy=0;labelBackgroundColor=#0000CC;labelBorderColor=none;fontFamily=Helvetica;fontSize=12;fontColor=#050405;endArrow=block;endFill=1;startSize=20;" edge="1" parent="EJrE-l1MfOlmUbTXFjeP-2" source="gJ_AU6WciQ7sIgmyaxu3-2" target="YDhDUQ8Wdp23jA2pJZWv-1">
          <mxGeometry relative="1" as="geometry">
            <Array as="points">
              <mxPoint x="475" y="555" />
            </Array>
          </mxGeometry>
        </mxCell>
        <mxCell id="TH_wn1tfSCU0-k82nctS-2" style="edgeStyle=orthogonalEdgeStyle;rounded=0;orthogonalLoop=1;jettySize=auto;html=1;entryX=0;entryY=1;entryDx=0;entryDy=0;labelBackgroundColor=#0000CC;labelBorderColor=none;fontFamily=Helvetica;fontSize=12;fontColor=#050405;endArrow=block;endFill=1;startSize=20;" edge="1" parent="EJrE-l1MfOlmUbTXFjeP-2" source="YDhDUQ8Wdp23jA2pJZWv-2" target="lzowUycqL3j4fNTdu4ry-1">
          <mxGeometry relative="1" as="geometry">
            <Array as="points">
              <mxPoint x="20" y="280" />
              <mxPoint x="409" y="280" />
            </Array>
          </mxGeometry>
        </mxCell>
        <mxCell id="EJrE-l1MfOlmUbTXFjeP-3" value="ผู้ยื่นคำขอ" style="swimlane;startSize=20;labelBackgroundColor=#FFFFFF;labelBorderColor=none;fontFamily=Helvetica;fontSize=12;fontColor=#050405;strokeColor=default;fillColor=default;" vertex="1" parent="EJrE-l1MfOlmUbTXFjeP-2">
          <mxGeometry y="20" width="340" height="1350" as="geometry" />
        </mxCell>
        <mxCell id="5ySdBbaKKtM053T3cAdn-4" style="edgeStyle=orthogonalEdgeStyle;rounded=0;orthogonalLoop=1;jettySize=auto;html=1;labelBackgroundColor=#0000CC;labelBorderColor=none;fontFamily=Helvetica;fontSize=12;fontColor=#050405;endArrow=block;endFill=1;startSize=20;" edge="1" parent="EJrE-l1MfOlmUbTXFjeP-3" source="l_4bA3C3qoP92tDDDCmG-1" target="5ySdBbaKKtM053T3cAdn-1">
          <mxGeometry relative="1" as="geometry" />
        </mxCell>
        <mxCell id="l_4bA3C3qoP92tDDDCmG-1" value="Start" style="rounded=1;whiteSpace=wrap;html=1;fontSize=12;glass=0;strokeWidth=1;shadow=0;" vertex="1" parent="EJrE-l1MfOlmUbTXFjeP-3">
          <mxGeometry x="70" y="50" width="120" height="40" as="geometry" />
        </mxCell>
        <mxCell id="5ySdBbaKKtM053T3cAdn-1" value="&lt;span style=&quot;&quot;&gt;ยื่นหนังสือแจ้งความ&lt;br&gt;ประสงค์พร้อมหลักฐาน&lt;/span&gt;" style="shape=parallelogram;perimeter=parallelogramPerimeter;whiteSpace=wrap;html=1;fixedSize=1;fontFamily=Helvetica;fontSize=12;fontColor=default;startSize=20;strokeColor=default;fillColor=default;size=10;" vertex="1" parent="EJrE-l1MfOlmUbTXFjeP-3">
          <mxGeometry x="60" y="130" width="140" height="70" as="geometry" />
        </mxCell>
        <mxCell id="uk_U3FZ5rPJYlLPGE3gL-1" style="edgeStyle=orthogonalEdgeStyle;rounded=0;orthogonalLoop=1;jettySize=auto;html=1;entryX=0.5;entryY=0;entryDx=0;entryDy=0;labelBackgroundColor=#0000CC;labelBorderColor=none;fontFamily=Helvetica;fontSize=12;fontColor=#050405;endArrow=block;endFill=1;startSize=20;" edge="1" parent="EJrE-l1MfOlmUbTXFjeP-3" source="YDhDUQ8Wdp23jA2pJZWv-1" target="YDhDUQ8Wdp23jA2pJZWv-2">
          <mxGeometry relative="1" as="geometry">
            <Array as="points">
              <mxPoint x="90" y="580" />
              <mxPoint x="90" y="580" />
            </Array>
          </mxGeometry>
        </mxCell>
        <mxCell id="YDhDUQ8Wdp23jA2pJZWv-1" value="แก้ไข / ยื่นเอกสาร&lt;br&gt;เพิ่มเติม" style="shape=parallelogram;perimeter=parallelogramPerimeter;whiteSpace=wrap;html=1;fixedSize=1;labelBackgroundColor=none;fontFamily=Helvetica;fontSize=12;fontColor=default;startSize=20;strokeColor=default;fillColor=default;size=10;" vertex="1" parent="EJrE-l1MfOlmUbTXFjeP-3">
          <mxGeometry x="30" y="505" width="130" height="60" as="geometry" />
        </mxCell>
        <mxCell id="YDhDUQ8Wdp23jA2pJZWv-2" value="เวลาในการดำเนิน&lt;br&gt;การแก้ไข / ยื่นเอกสาร" style="rhombus;whiteSpace=wrap;html=1;labelBackgroundColor=#FFFFFF;labelBorderColor=none;fontFamily=Helvetica;fontSize=12;fontColor=#050405;startSize=20;strokeColor=default;fillColor=default;" vertex="1" parent="EJrE-l1MfOlmUbTXFjeP-3">
          <mxGeometry x="20" y="610" width="140" height="132" as="geometry" />
        </mxCell>
        <mxCell id="TH_wn1tfSCU0-k82nctS-1" value="[ดำเนินการเกินระยะเวลาที่กำหนด]" style="text;html=1;align=center;verticalAlign=middle;resizable=0;points=[];autosize=1;fontSize=12;fontFamily=Helvetica;labelBackgroundColor=#FFFFFF;" vertex="1" parent="EJrE-l1MfOlmUbTXFjeP-3">
          <mxGeometry y="810" width="180" height="20" as="geometry" />
        </mxCell>
        <mxCell id="mTdd4TgPhciaUo2gmvxd-1" value="[ดำเนินการภายในระยะเวลาที่กำหนด]" style="text;html=1;align=center;verticalAlign=middle;resizable=0;points=[];autosize=1;fontSize=12;fontFamily=Helvetica;labelBackgroundColor=#FFFFFF;" vertex="1" parent="EJrE-l1MfOlmUbTXFjeP-3">
          <mxGeometry x="40" y="240" width="200" height="20" as="geometry" />
        </mxCell>
        <mxCell id="yWD7Twbtc_NCPkTVU4wa-34" value="รับหนังสืออนุญาติ และชำระค่าบริการ" style="rounded=0;whiteSpace=wrap;html=1;labelBackgroundColor=#FFFFFF;labelBorderColor=none;fontFamily=Helvetica;fontSize=12;fontColor=#050405;startSize=20;strokeColor=default;fillColor=default;" vertex="1" parent="EJrE-l1MfOlmUbTXFjeP-3">
          <mxGeometry x="160" y="960" width="120" height="60" as="geometry" />
        </mxCell>
        <mxCell id="EJrE-l1MfOlmUbTXFjeP-4" value="เจ้าหน้าที่" style="swimlane;startSize=20;labelBackgroundColor=#FFFFFF;labelBorderColor=none;fontFamily=Helvetica;fontSize=12;fontColor=#050405;strokeColor=default;fillColor=default;" vertex="1" parent="EJrE-l1MfOlmUbTXFjeP-2">
          <mxGeometry x="340" y="20" width="360" height="1350" as="geometry" />
        </mxCell>
        <mxCell id="yy7uifIHuL4FUkz5li95-1" style="edgeStyle=orthogonalEdgeStyle;rounded=0;orthogonalLoop=1;jettySize=auto;html=1;entryX=0.5;entryY=0;entryDx=0;entryDy=0;labelBackgroundColor=#0000CC;labelBorderColor=none;fontFamily=Helvetica;fontSize=12;fontColor=#050405;endArrow=block;endFill=1;startSize=20;" edge="1" parent="EJrE-l1MfOlmUbTXFjeP-4" source="lzowUycqL3j4fNTdu4ry-1" target="rXLofIBAH_MD_VO6c9CT-1">
          <mxGeometry relative="1" as="geometry">
            <Array as="points">
              <mxPoint x="135" y="165" />
            </Array>
          </mxGeometry>
        </mxCell>
        <mxCell id="lzowUycqL3j4fNTdu4ry-1" value="" style="ellipse;whiteSpace=wrap;html=1;aspect=fixed;labelBackgroundColor=#FFFFFF;labelBorderColor=none;fontFamily=Helvetica;fontSize=12;fontColor=#050405;startSize=20;strokeColor=default;fillColor=default;" vertex="1" parent="EJrE-l1MfOlmUbTXFjeP-4">
          <mxGeometry x="65" y="150" width="30" height="30" as="geometry" />
        </mxCell>
        <mxCell id="Y5l-J092VISmEmydA0PT-2" style="edgeStyle=orthogonalEdgeStyle;rounded=0;orthogonalLoop=1;jettySize=auto;html=1;labelBackgroundColor=#0000CC;labelBorderColor=none;fontFamily=Helvetica;fontSize=12;fontColor=#050405;endArrow=block;endFill=1;startSize=20;" edge="1" parent="EJrE-l1MfOlmUbTXFjeP-4" source="rXLofIBAH_MD_VO6c9CT-1" target="gJ_AU6WciQ7sIgmyaxu3-1">
          <mxGeometry relative="1" as="geometry" />
        </mxCell>
        <mxCell id="wmw5zORBfCFefFEeYBfE-3" style="edgeStyle=orthogonalEdgeStyle;rounded=0;orthogonalLoop=1;jettySize=auto;html=1;labelBackgroundColor=#0000CC;labelBorderColor=none;fontFamily=Helvetica;fontSize=12;fontColor=#050405;endArrow=block;endFill=1;startSize=20;entryX=1;entryY=0.5;entryDx=0;entryDy=0;" edge="1" parent="EJrE-l1MfOlmUbTXFjeP-4" source="rXLofIBAH_MD_VO6c9CT-1" target="wmw5zORBfCFefFEeYBfE-1">
          <mxGeometry relative="1" as="geometry">
            <mxPoint x="250" y="510" as="targetPoint" />
            <Array as="points">
              <mxPoint x="270" y="255" />
              <mxPoint x="270" y="640" />
            </Array>
          </mxGeometry>
        </mxCell>
        <mxCell id="rXLofIBAH_MD_VO6c9CT-1" value="ตรวจสอบเอกสาร" style="rhombus;whiteSpace=wrap;html=1;fontFamily=Helvetica;fontSize=12;fontColor=default;startSize=20;strokeColor=default;fillColor=default;" vertex="1" parent="EJrE-l1MfOlmUbTXFjeP-4">
          <mxGeometry x="95" y="215" width="80" height="80" as="geometry" />
        </mxCell>
        <mxCell id="Jp2iGBSpXNfH6P-Ajy4M-1" value="" style="edgeStyle=orthogonalEdgeStyle;rounded=0;orthogonalLoop=1;jettySize=auto;html=1;labelBackgroundColor=#0000CC;labelBorderColor=none;fontFamily=Helvetica;fontSize=12;fontColor=#050405;endArrow=block;endFill=1;startSize=20;" edge="1" parent="EJrE-l1MfOlmUbTXFjeP-4" source="gJ_AU6WciQ7sIgmyaxu3-1" target="gJ_AU6WciQ7sIgmyaxu3-2">
          <mxGeometry relative="1" as="geometry" />
        </mxCell>
        <mxCell id="gJ_AU6WciQ7sIgmyaxu3-1" value="&lt;span style=&quot;&quot;&gt;บันทึกความบกพร่องเอกสาร / เอกสารหลักฐานที่ยื่นเพิ่มเติม&lt;/span&gt;" style="shape=parallelogram;perimeter=parallelogramPerimeter;whiteSpace=wrap;html=1;fixedSize=1;labelBackgroundColor=none;fontFamily=Helvetica;fontSize=12;fontColor=default;startSize=20;strokeColor=default;fillColor=default;size=10;" vertex="1" parent="EJrE-l1MfOlmUbTXFjeP-4">
          <mxGeometry x="57.5" y="345" width="155" height="60" as="geometry" />
        </mxCell>
        <mxCell id="gJ_AU6WciQ7sIgmyaxu3-2" value="มอบสำเนาบันทึกความบกพร่องแก่ผู้ยื่นคำขอ" style="rounded=0;whiteSpace=wrap;html=1;labelBackgroundColor=#FFFFFF;labelBorderColor=none;fontFamily=Helvetica;fontSize=12;fontColor=#050405;startSize=20;strokeColor=default;fillColor=default;" vertex="1" parent="EJrE-l1MfOlmUbTXFjeP-4">
          <mxGeometry x="75" y="445" width="120" height="60" as="geometry" />
        </mxCell>
        <mxCell id="Y5l-J092VISmEmydA0PT-1" value="[เอกสารไม่ครบถ้วน / มีข้อบกพร่อง]" style="text;html=1;align=center;verticalAlign=middle;resizable=0;points=[];autosize=1;fontSize=12;fontFamily=Helvetica;labelBackgroundColor=default;" vertex="1" parent="EJrE-l1MfOlmUbTXFjeP-4">
          <mxGeometry x="40" y="305" width="190" height="20" as="geometry" />
        </mxCell>
        <mxCell id="Il7OzQyHVQid87QWuMhL-1" value="End" style="rounded=1;whiteSpace=wrap;html=1;fontSize=12;glass=0;strokeWidth=1;shadow=0;" vertex="1" parent="EJrE-l1MfOlmUbTXFjeP-4">
          <mxGeometry x="100" y="1300" width="120" height="40" as="geometry" />
        </mxCell>
        <mxCell id="yWD7Twbtc_NCPkTVU4wa-18" style="edgeStyle=orthogonalEdgeStyle;rounded=0;orthogonalLoop=1;jettySize=auto;html=1;entryX=0.5;entryY=0;entryDx=0;entryDy=0;labelBackgroundColor=#0000CC;labelBorderColor=none;fontFamily=Helvetica;fontSize=12;fontColor=#050405;endArrow=block;endFill=1;startSize=20;" edge="1" parent="EJrE-l1MfOlmUbTXFjeP-4" source="wmw5zORBfCFefFEeYBfE-1" target="wmw5zORBfCFefFEeYBfE-33">
          <mxGeometry relative="1" as="geometry" />
        </mxCell>
        <mxCell id="wmw5zORBfCFefFEeYBfE-1" value="ออกตรวจสอบ ณ สถานที่จริง" style="rounded=0;whiteSpace=wrap;html=1;labelBackgroundColor=#FFFFFF;labelBorderColor=none;fontFamily=Helvetica;fontSize=12;fontColor=#050405;startSize=20;strokeColor=default;fillColor=default;" vertex="1" parent="EJrE-l1MfOlmUbTXFjeP-4">
          <mxGeometry x="75" y="610" width="120" height="60" as="geometry" />
        </mxCell>
        <mxCell id="wmw5zORBfCFefFEeYBfE-4" value="[เอกสารครบถ้วน]" style="text;html=1;align=center;verticalAlign=middle;resizable=0;points=[];autosize=1;fontSize=12;fontFamily=Helvetica;labelBackgroundColor=default;" vertex="1" parent="EJrE-l1MfOlmUbTXFjeP-4">
          <mxGeometry x="183" y="245" width="100" height="20" as="geometry" />
        </mxCell>
        <mxCell id="yWD7Twbtc_NCPkTVU4wa-19" style="edgeStyle=orthogonalEdgeStyle;rounded=0;orthogonalLoop=1;jettySize=auto;html=1;labelBackgroundColor=#0000CC;labelBorderColor=none;fontFamily=Helvetica;fontSize=12;fontColor=#050405;endArrow=block;endFill=1;startSize=20;" edge="1" parent="EJrE-l1MfOlmUbTXFjeP-4" source="wmw5zORBfCFefFEeYBfE-33" target="k5AbnexMdsNYXyxIHo87-1">
          <mxGeometry relative="1" as="geometry" />
        </mxCell>
        <mxCell id="wmw5zORBfCFefFEeYBfE-33" value="พิจารณาค่าบริการ" style="rounded=0;whiteSpace=wrap;html=1;labelBackgroundColor=#FFFFFF;labelBorderColor=none;fontFamily=Helvetica;fontSize=12;fontColor=#050405;startSize=20;strokeColor=default;fillColor=default;" vertex="1" parent="EJrE-l1MfOlmUbTXFjeP-4">
          <mxGeometry x="75" y="710" width="120" height="60" as="geometry" />
        </mxCell>
        <mxCell id="k5AbnexMdsNYXyxIHo87-1" value="จัดทำรายงานและนำเสนอเจ้าหน้าที่ผู้มีอำนาจอนุมัติ" style="shape=document;whiteSpace=wrap;html=1;boundedLbl=1;labelBackgroundColor=#FFFFFF;labelBorderColor=none;fontFamily=Helvetica;fontSize=12;fontColor=#050405;startSize=20;strokeColor=default;fillColor=default;" vertex="1" parent="EJrE-l1MfOlmUbTXFjeP-4">
          <mxGeometry x="75" y="820" width="120" height="80" as="geometry" />
        </mxCell>
        <mxCell id="yWD7Twbtc_NCPkTVU4wa-1" value="แจ้งผลการพิจารณาและประชาสัมพันธ์ให้ประชาชนทราบ&amp;nbsp;" style="rounded=0;whiteSpace=wrap;html=1;labelBackgroundColor=#FFFFFF;labelBorderColor=none;fontFamily=Helvetica;fontSize=12;fontColor=#050405;startSize=20;strokeColor=default;fillColor=default;" vertex="1" parent="EJrE-l1MfOlmUbTXFjeP-4">
          <mxGeometry x="100" y="960" width="120" height="60" as="geometry" />
        </mxCell>
        <mxCell id="yWD7Twbtc_NCPkTVU4wa-37" value="" style="ellipse;whiteSpace=wrap;html=1;aspect=fixed;labelBackgroundColor=#FFFFFF;labelBorderColor=none;fontFamily=Helvetica;fontSize=12;fontColor=#050405;startSize=20;strokeColor=default;fillColor=default;" vertex="1" parent="EJrE-l1MfOlmUbTXFjeP-4">
          <mxGeometry x="145" y="1215" width="30" height="30" as="geometry" />
        </mxCell>
        <mxCell id="yWD7Twbtc_NCPkTVU4wa-38" style="edgeStyle=orthogonalEdgeStyle;rounded=0;orthogonalLoop=1;jettySize=auto;html=1;entryX=0.5;entryY=0;entryDx=0;entryDy=0;labelBackgroundColor=#0000CC;labelBorderColor=none;fontFamily=Helvetica;fontSize=12;fontColor=#050405;endArrow=block;endFill=1;startSize=20;" edge="1" parent="EJrE-l1MfOlmUbTXFjeP-4" source="yWD7Twbtc_NCPkTVU4wa-37" target="Il7OzQyHVQid87QWuMhL-1">
          <mxGeometry relative="1" as="geometry" />
        </mxCell>
        <mxCell id="yWD7Twbtc_NCPkTVU4wa-61" style="edgeStyle=orthogonalEdgeStyle;rounded=0;orthogonalLoop=1;jettySize=auto;html=1;entryX=0.5;entryY=0;entryDx=0;entryDy=0;labelBackgroundColor=#0000CC;labelBorderColor=none;fontFamily=Helvetica;fontSize=12;fontColor=#050405;endArrow=block;endFill=1;startSize=20;" edge="1" parent="EJrE-l1MfOlmUbTXFjeP-4" source="yWD7Twbtc_NCPkTVU4wa-59" target="yWD7Twbtc_NCPkTVU4wa-37">
          <mxGeometry relative="1" as="geometry" />
        </mxCell>
        <mxCell id="yWD7Twbtc_NCPkTVU4wa-59" value="แจ้งผลการพิจารณาแก่&lt;br&gt;ผู้ยื่นคำร้อง" style="rounded=0;whiteSpace=wrap;html=1;labelBackgroundColor=#FFFFFF;labelBorderColor=none;fontFamily=Helvetica;fontSize=12;fontColor=#050405;startSize=20;strokeColor=default;fillColor=default;" vertex="1" parent="EJrE-l1MfOlmUbTXFjeP-4">
          <mxGeometry x="100" y="1050" width="120" height="60" as="geometry" />
        </mxCell>
        <mxCell id="yWD7Twbtc_NCPkTVU4wa-2" value="เจ้าหน้าที่ผู้มีอำนาจอนุมัติ" style="swimlane;startSize=20;labelBackgroundColor=#FFFFFF;labelBorderColor=none;fontFamily=Helvetica;fontSize=12;fontColor=#050405;strokeColor=default;fillColor=default;" vertex="1" parent="EJrE-l1MfOlmUbTXFjeP-2">
          <mxGeometry x="700" y="20" width="360" height="1350" as="geometry" />
        </mxCell>
        <mxCell id="yWD7Twbtc_NCPkTVU4wa-20" value="พิจารณา&lt;br&gt;รายงานคำร้อง" style="rhombus;whiteSpace=wrap;html=1;labelBackgroundColor=#FFFFFF;labelBorderColor=none;fontFamily=Helvetica;fontSize=12;fontColor=#050405;startSize=20;strokeColor=default;fillColor=default;" vertex="1" parent="yWD7Twbtc_NCPkTVU4wa-2">
          <mxGeometry x="80" y="862" width="130" height="130" as="geometry" />
        </mxCell>
        <mxCell id="yWD7Twbtc_NCPkTVU4wa-28" value="[อนุมัติ]" style="text;html=1;align=center;verticalAlign=middle;resizable=0;points=[];autosize=1;fontSize=12;fontFamily=Helvetica;labelBackgroundColor=default;" vertex="1" parent="yWD7Twbtc_NCPkTVU4wa-2">
          <mxGeometry x="35" y="960" width="50" height="20" as="geometry" />
        </mxCell>
        <mxCell id="yWD7Twbtc_NCPkTVU4wa-30" value="[ไม่อนุมัติ]" style="text;html=1;align=center;verticalAlign=middle;resizable=0;points=[];autosize=1;fontSize=12;fontFamily=Helvetica;labelBackgroundColor=default;" vertex="1" parent="yWD7Twbtc_NCPkTVU4wa-2">
          <mxGeometry x="220" y="960" width="60" height="20" as="geometry" />
        </mxCell>
        <mxCell id="yWD7Twbtc_NCPkTVU4wa-27" style="edgeStyle=orthogonalEdgeStyle;rounded=0;orthogonalLoop=1;jettySize=auto;html=1;labelBackgroundColor=#0000CC;labelBorderColor=none;fontFamily=Helvetica;fontSize=12;fontColor=#050405;endArrow=block;endFill=1;startSize=20;" edge="1" parent="EJrE-l1MfOlmUbTXFjeP-2" source="yWD7Twbtc_NCPkTVU4wa-20">
          <mxGeometry relative="1" as="geometry">
            <mxPoint x="560" y="1010" as="targetPoint" />
            <Array as="points">
              <mxPoint x="760" y="947" />
              <mxPoint x="760" y="1010" />
            </Array>
          </mxGeometry>
        </mxCell>
        <mxCell id="yWD7Twbtc_NCPkTVU4wa-31" style="edgeStyle=orthogonalEdgeStyle;rounded=0;orthogonalLoop=1;jettySize=auto;html=1;entryX=0.5;entryY=0;entryDx=0;entryDy=0;labelBackgroundColor=#0000CC;labelBorderColor=none;fontFamily=Helvetica;fontSize=12;fontColor=#050405;endArrow=block;endFill=1;startSize=20;" edge="1" parent="EJrE-l1MfOlmUbTXFjeP-2" source="k5AbnexMdsNYXyxIHo87-1" target="yWD7Twbtc_NCPkTVU4wa-20">
          <mxGeometry relative="1" as="geometry">
            <Array as="points">
              <mxPoint x="845" y="862" />
            </Array>
          </mxGeometry>
        </mxCell>
        <mxCell id="yWD7Twbtc_NCPkTVU4wa-35" style="edgeStyle=orthogonalEdgeStyle;rounded=0;orthogonalLoop=1;jettySize=auto;html=1;labelBackgroundColor=#0000CC;labelBorderColor=none;fontFamily=Helvetica;fontSize=12;fontColor=#050405;endArrow=block;endFill=1;startSize=20;" edge="1" parent="EJrE-l1MfOlmUbTXFjeP-2" source="yWD7Twbtc_NCPkTVU4wa-1" target="yWD7Twbtc_NCPkTVU4wa-34">
          <mxGeometry relative="1" as="geometry" />
        </mxCell>
        <mxCell id="yWD7Twbtc_NCPkTVU4wa-36" style="edgeStyle=orthogonalEdgeStyle;rounded=0;orthogonalLoop=1;jettySize=auto;html=1;labelBackgroundColor=#0000CC;labelBorderColor=none;fontFamily=Helvetica;fontSize=12;fontColor=#050405;endArrow=block;endFill=1;startSize=20;entryX=0;entryY=0;entryDx=0;entryDy=0;" edge="1" parent="EJrE-l1MfOlmUbTXFjeP-2" source="yWD7Twbtc_NCPkTVU4wa-34" target="yWD7Twbtc_NCPkTVU4wa-37">
          <mxGeometry relative="1" as="geometry">
            <mxPoint x="220" y="1220" as="targetPoint" />
            <Array as="points">
              <mxPoint x="220" y="1190" />
              <mxPoint x="489" y="1190" />
            </Array>
          </mxGeometry>
        </mxCell>
        <mxCell id="Il7OzQyHVQid87QWuMhL-2" style="edgeStyle=orthogonalEdgeStyle;rounded=0;orthogonalLoop=1;jettySize=auto;html=1;labelBackgroundColor=#0000CC;labelBorderColor=none;fontFamily=Helvetica;fontSize=12;fontColor=#050405;endArrow=block;endFill=1;startSize=20;entryX=0;entryY=0.5;entryDx=0;entryDy=0;" edge="1" parent="EJrE-l1MfOlmUbTXFjeP-2" source="YDhDUQ8Wdp23jA2pJZWv-2" target="yWD7Twbtc_NCPkTVU4wa-37">
          <mxGeometry relative="1" as="geometry">
            <mxPoint x="200" y="1260" as="targetPoint" />
            <Array as="points">
              <mxPoint x="90" y="1250" />
            </Array>
          </mxGeometry>
        </mxCell>
        <mxCell id="yWD7Twbtc_NCPkTVU4wa-60" style="edgeStyle=orthogonalEdgeStyle;rounded=0;orthogonalLoop=1;jettySize=auto;html=1;entryX=1;entryY=0.75;entryDx=0;entryDy=0;labelBackgroundColor=#0000CC;labelBorderColor=none;fontFamily=Helvetica;fontSize=12;fontColor=#050405;endArrow=block;endFill=1;startSize=20;" edge="1" parent="EJrE-l1MfOlmUbTXFjeP-2" source="yWD7Twbtc_NCPkTVU4wa-20" target="yWD7Twbtc_NCPkTVU4wa-59">
          <mxGeometry relative="1" as="geometry">
            <Array as="points">
              <mxPoint x="950" y="947" />
              <mxPoint x="950" y="1115" />
            </Array>
          </mxGeometry>
        </mxCell>
      </root>
    </mxGraphModel>
  </diagram>
</mxfile>
